# xmcd
#
# Track frame offsets:
#	182
#	13405
#	26397
#	38120
#	50132
#	62602
#	72277
#	82595
#	92800
#	103890
#	120125
#	131807
#	143960
#	151840
#	172012
#	182292
#	201350
#	215185
#
# Disc length: 3055
#
# Revision: 2
# Processed by: cddbd v1.5.1PL0 Copyright (c) Steve Scherf et al.
# Submitted via: audiograbber 1.80.04
# Normalized: r1:DSETVAR1
#
DISCID=fc0bed12
DTITLE=Various Artist - Tempos Rebeldes
DYEAR=1900
DGENRE=
TTITLE0=HERMAN'S HERMITS - NO MILK TODAY
TTITLE1=THE HOLLIES - BUS STOP
TTITLE2=GERRY ^THE PACEMAKERS - DON'T LET THE SUN CATH YOU CRYING
TTITLE3=PETER AND GORDON - A WORLD WITHOUT LOVE
TTITLE4=LULU - TO SIR, WITH LOVE
TTITLE5=GARY LEWIS AND PLAYBOYS - THIS DIAMOND RING
TTITLE6=THE SEEKERS - GEORGY GIRL
TTITLE7=THE HUMAN BEINZ - NOBODY BUT ME
TTITLE8=JAN AND DEAN - SURF CITY
TTITLE9=THE BEACH BOYS - ]GOOD VIBRATIONS
TTITLE10=GENE VINCENT - BE BOP A LULA
TTITLE11=GLEN CAMPBELL - BY THE TIME I GET TO PHONEX
TTITLE12=THE SWINGING BLUE JEANS - HIPPY HIPPY SHAKE
TTITLE13=THE ANIMALS - THE HOUSE OF RISING SUN
TTITLE14=THE SWINGING BLUE JEANS - YOU'RE NO GOOD
TTITLE15=BOBBIE GENTRY - ODE TO BILLIE JOE
TTITLE16=JOHNNY RIVERS - DO YOU WANNA DANCE
TTITLE17=THE BEACH BOYS - HELP ME RHONDA
EXTD=
EXTT0=
EXTT1=
EXTT2=
EXTT3=
EXTT4=
EXTT5=
EXTT6=
EXTT7=
EXTT8=
EXTT9=
EXTT10=
EXTT11=
EXTT12=
EXTT13=
EXTT14=
EXTT15=
EXTT16=
EXTT17=
PLAYORDER=
